<mxfile host="app.diagrams.net" modified="2024-04-22T05:57:57.373Z" agent="Mozilla/5.0 (Windows NT 10.0; Win64; x64) AppleWebKit/537.36 (KHTML, like Gecko) Chrome/123.0.0.0 Safari/537.36 Edg/123.0.0.0" etag="2AKuUfEI8fJc1pB5Uezf" version="24.2.7" type="github">
  <diagram id="R2lEEEUBdFMjLlhIrx00" name="Page-1">
    <mxGraphModel dx="1155" dy="626" grid="0" gridSize="10" guides="1" tooltips="1" connect="1" arrows="1" fold="1" page="0" pageScale="1" pageWidth="850" pageHeight="1100" math="0" shadow="0" extFonts="Permanent Marker^https://fonts.googleapis.com/css?family=Permanent+Marker">
      <root>
        <mxCell id="0" />
        <mxCell id="1" parent="0" />
        <mxCell id="ZoXwGWdas1FD-zIulrFw-15" value="班级" style="rounded=0;whiteSpace=wrap;html=1;" vertex="1" parent="1">
          <mxGeometry x="245" y="176" width="70" height="30" as="geometry" />
        </mxCell>
        <mxCell id="ZoXwGWdas1FD-zIulrFw-16" value="班级 id" style="ellipse;whiteSpace=wrap;html=1;" vertex="1" parent="1">
          <mxGeometry x="120" y="155" width="80" height="30" as="geometry" />
        </mxCell>
        <mxCell id="ZoXwGWdas1FD-zIulrFw-17" value="管理" style="rhombus;whiteSpace=wrap;html=1;" vertex="1" parent="1">
          <mxGeometry x="480" y="423" width="90" height="30" as="geometry" />
        </mxCell>
        <mxCell id="ZoXwGWdas1FD-zIulrFw-19" value="" style="endArrow=none;html=1;rounded=0;entryX=1;entryY=0.5;entryDx=0;entryDy=0;exitX=0;exitY=0.5;exitDx=0;exitDy=0;" edge="1" parent="1" source="ZoXwGWdas1FD-zIulrFw-15" target="ZoXwGWdas1FD-zIulrFw-16">
          <mxGeometry width="50" height="50" relative="1" as="geometry">
            <mxPoint x="535" y="772" as="sourcePoint" />
            <mxPoint x="585" y="722" as="targetPoint" />
          </mxGeometry>
        </mxCell>
        <mxCell id="ZoXwGWdas1FD-zIulrFw-20" value="课程名称" style="ellipse;whiteSpace=wrap;html=1;" vertex="1" parent="1">
          <mxGeometry x="120" y="193" width="80" height="30" as="geometry" />
        </mxCell>
        <mxCell id="ZoXwGWdas1FD-zIulrFw-21" value="" style="endArrow=none;html=1;rounded=0;entryX=0;entryY=0.5;entryDx=0;entryDy=0;exitX=1;exitY=0.5;exitDx=0;exitDy=0;" edge="1" parent="1" source="ZoXwGWdas1FD-zIulrFw-20" target="ZoXwGWdas1FD-zIulrFw-15">
          <mxGeometry width="50" height="50" relative="1" as="geometry">
            <mxPoint x="205" y="762" as="sourcePoint" />
            <mxPoint x="285" y="652" as="targetPoint" />
          </mxGeometry>
        </mxCell>
        <mxCell id="ZoXwGWdas1FD-zIulrFw-22" value="课程" style="rounded=0;whiteSpace=wrap;html=1;" vertex="1" parent="1">
          <mxGeometry x="210" y="310" width="70" height="30" as="geometry" />
        </mxCell>
        <mxCell id="ZoXwGWdas1FD-zIulrFw-23" value="课程 id" style="ellipse;whiteSpace=wrap;html=1;" vertex="1" parent="1">
          <mxGeometry x="80" y="276.5" width="80" height="30" as="geometry" />
        </mxCell>
        <mxCell id="ZoXwGWdas1FD-zIulrFw-24" value="" style="endArrow=none;html=1;rounded=0;entryX=1;entryY=0.5;entryDx=0;entryDy=0;exitX=0;exitY=0.5;exitDx=0;exitDy=0;" edge="1" parent="1" source="ZoXwGWdas1FD-zIulrFw-22" target="ZoXwGWdas1FD-zIulrFw-23">
          <mxGeometry width="50" height="50" relative="1" as="geometry">
            <mxPoint x="515" y="360.5" as="sourcePoint" />
            <mxPoint x="565" y="310.5" as="targetPoint" />
          </mxGeometry>
        </mxCell>
        <mxCell id="ZoXwGWdas1FD-zIulrFw-25" value="课程名称" style="ellipse;whiteSpace=wrap;html=1;" vertex="1" parent="1">
          <mxGeometry x="60" y="311.5" width="80" height="30" as="geometry" />
        </mxCell>
        <mxCell id="ZoXwGWdas1FD-zIulrFw-26" value="" style="endArrow=none;html=1;rounded=0;entryX=0;entryY=0.5;entryDx=0;entryDy=0;exitX=1;exitY=0.5;exitDx=0;exitDy=0;" edge="1" parent="1" source="ZoXwGWdas1FD-zIulrFw-25" target="ZoXwGWdas1FD-zIulrFw-22">
          <mxGeometry width="50" height="50" relative="1" as="geometry">
            <mxPoint x="185" y="350.5" as="sourcePoint" />
            <mxPoint x="265" y="240.5" as="targetPoint" />
          </mxGeometry>
        </mxCell>
        <mxCell id="ZoXwGWdas1FD-zIulrFw-27" value="用户" style="rounded=0;whiteSpace=wrap;html=1;" vertex="1" parent="1">
          <mxGeometry x="489" y="310" width="70" height="30" as="geometry" />
        </mxCell>
        <mxCell id="ZoXwGWdas1FD-zIulrFw-28" value="用户 id" style="ellipse;whiteSpace=wrap;html=1;" vertex="1" parent="1">
          <mxGeometry x="588" y="170" width="80" height="30" as="geometry" />
        </mxCell>
        <mxCell id="ZoXwGWdas1FD-zIulrFw-29" value="" style="endArrow=none;html=1;rounded=0;entryX=0;entryY=0.5;entryDx=0;entryDy=0;exitX=1;exitY=0.5;exitDx=0;exitDy=0;" edge="1" parent="1" target="ZoXwGWdas1FD-zIulrFw-28">
          <mxGeometry width="50" height="50" relative="1" as="geometry">
            <mxPoint x="558" y="325" as="sourcePoint" />
            <mxPoint x="919" y="400" as="targetPoint" />
          </mxGeometry>
        </mxCell>
        <mxCell id="ZoXwGWdas1FD-zIulrFw-30" value="用户姓名" style="ellipse;whiteSpace=wrap;html=1;" vertex="1" parent="1">
          <mxGeometry x="622" y="200" width="80" height="30" as="geometry" />
        </mxCell>
        <mxCell id="ZoXwGWdas1FD-zIulrFw-31" value="" style="endArrow=none;html=1;rounded=0;entryX=1;entryY=0.5;entryDx=0;entryDy=0;exitX=0;exitY=0.5;exitDx=0;exitDy=0;" edge="1" parent="1" source="ZoXwGWdas1FD-zIulrFw-30">
          <mxGeometry width="50" height="50" relative="1" as="geometry">
            <mxPoint x="539" y="440" as="sourcePoint" />
            <mxPoint x="558" y="325" as="targetPoint" />
          </mxGeometry>
        </mxCell>
        <mxCell id="ZoXwGWdas1FD-zIulrFw-32" value="课程论文要求" style="ellipse;whiteSpace=wrap;html=1;" vertex="1" parent="1">
          <mxGeometry x="80" y="345.5" width="80" height="30" as="geometry" />
        </mxCell>
        <mxCell id="ZoXwGWdas1FD-zIulrFw-33" value="" style="endArrow=none;html=1;rounded=0;entryX=0;entryY=0.5;entryDx=0;entryDy=0;exitX=1;exitY=0.5;exitDx=0;exitDy=0;" edge="1" parent="1" source="ZoXwGWdas1FD-zIulrFw-32" target="ZoXwGWdas1FD-zIulrFw-22">
          <mxGeometry width="50" height="50" relative="1" as="geometry">
            <mxPoint x="195" y="390.5" as="sourcePoint" />
            <mxPoint x="255" y="275.5" as="targetPoint" />
          </mxGeometry>
        </mxCell>
        <mxCell id="ZoXwGWdas1FD-zIulrFw-34" value="密码" style="ellipse;whiteSpace=wrap;html=1;" vertex="1" parent="1">
          <mxGeometry x="662" y="236" width="80" height="30" as="geometry" />
        </mxCell>
        <mxCell id="ZoXwGWdas1FD-zIulrFw-35" value="" style="endArrow=none;html=1;rounded=0;entryX=1;entryY=0.5;entryDx=0;entryDy=0;exitX=0;exitY=0.5;exitDx=0;exitDy=0;" edge="1" parent="1" source="ZoXwGWdas1FD-zIulrFw-34">
          <mxGeometry width="50" height="50" relative="1" as="geometry">
            <mxPoint x="689" y="275" as="sourcePoint" />
            <mxPoint x="558" y="325" as="targetPoint" />
          </mxGeometry>
        </mxCell>
        <mxCell id="ZoXwGWdas1FD-zIulrFw-36" value="用户角色" style="ellipse;whiteSpace=wrap;html=1;" vertex="1" parent="1">
          <mxGeometry x="682" y="274" width="80" height="30" as="geometry" />
        </mxCell>
        <mxCell id="ZoXwGWdas1FD-zIulrFw-37" value="" style="endArrow=none;html=1;rounded=0;entryX=1;entryY=0.5;entryDx=0;entryDy=0;exitX=0;exitY=0.5;exitDx=0;exitDy=0;" edge="1" parent="1" source="ZoXwGWdas1FD-zIulrFw-36">
          <mxGeometry width="50" height="50" relative="1" as="geometry">
            <mxPoint x="709" y="306" as="sourcePoint" />
            <mxPoint x="558" y="325" as="targetPoint" />
          </mxGeometry>
        </mxCell>
        <mxCell id="ZoXwGWdas1FD-zIulrFw-38" value="性别" style="ellipse;whiteSpace=wrap;html=1;" vertex="1" parent="1">
          <mxGeometry x="692" y="310" width="80" height="30" as="geometry" />
        </mxCell>
        <mxCell id="ZoXwGWdas1FD-zIulrFw-39" value="" style="endArrow=none;html=1;rounded=0;entryX=1.04;entryY=0.52;entryDx=0;entryDy=0;exitX=0;exitY=0.5;exitDx=0;exitDy=0;entryPerimeter=0;" edge="1" parent="1" source="ZoXwGWdas1FD-zIulrFw-38">
          <mxGeometry width="50" height="50" relative="1" as="geometry">
            <mxPoint x="719" y="337" as="sourcePoint" />
            <mxPoint x="560.8000000000002" y="325.5999999999999" as="targetPoint" />
          </mxGeometry>
        </mxCell>
        <mxCell id="ZoXwGWdas1FD-zIulrFw-40" value="联系电话" style="ellipse;whiteSpace=wrap;html=1;" vertex="1" parent="1">
          <mxGeometry x="682" y="350" width="80" height="30" as="geometry" />
        </mxCell>
        <mxCell id="ZoXwGWdas1FD-zIulrFw-41" value="" style="endArrow=none;html=1;rounded=0;entryX=1;entryY=0.5;entryDx=0;entryDy=0;exitX=0;exitY=0.5;exitDx=0;exitDy=0;" edge="1" parent="1" source="ZoXwGWdas1FD-zIulrFw-40">
          <mxGeometry width="50" height="50" relative="1" as="geometry">
            <mxPoint x="699" y="392" as="sourcePoint" />
            <mxPoint x="558" y="325" as="targetPoint" />
          </mxGeometry>
        </mxCell>
        <mxCell id="ZoXwGWdas1FD-zIulrFw-42" value="身份证号" style="ellipse;whiteSpace=wrap;html=1;" vertex="1" parent="1">
          <mxGeometry x="662" y="387" width="80" height="30" as="geometry" />
        </mxCell>
        <mxCell id="ZoXwGWdas1FD-zIulrFw-43" value="" style="endArrow=none;html=1;rounded=0;entryX=1;entryY=0.5;entryDx=0;entryDy=0;exitX=0;exitY=0.5;exitDx=0;exitDy=0;" edge="1" parent="1" source="ZoXwGWdas1FD-zIulrFw-42">
          <mxGeometry width="50" height="50" relative="1" as="geometry">
            <mxPoint x="689" y="402" as="sourcePoint" />
            <mxPoint x="558" y="325" as="targetPoint" />
          </mxGeometry>
        </mxCell>
        <mxCell id="ZoXwGWdas1FD-zIulrFw-44" value="头像" style="ellipse;whiteSpace=wrap;html=1;" vertex="1" parent="1">
          <mxGeometry x="622" y="423" width="80" height="30" as="geometry" />
        </mxCell>
        <mxCell id="ZoXwGWdas1FD-zIulrFw-45" value="" style="endArrow=none;html=1;rounded=0;entryX=1;entryY=0.5;entryDx=0;entryDy=0;exitX=0;exitY=0.5;exitDx=0;exitDy=0;" edge="1" parent="1" source="ZoXwGWdas1FD-zIulrFw-44">
          <mxGeometry width="50" height="50" relative="1" as="geometry">
            <mxPoint x="659" y="432" as="sourcePoint" />
            <mxPoint x="558" y="325" as="targetPoint" />
          </mxGeometry>
        </mxCell>
        <mxCell id="ZoXwGWdas1FD-zIulrFw-47" value="地址" style="ellipse;whiteSpace=wrap;html=1;" vertex="1" parent="1">
          <mxGeometry x="588" y="456" width="80" height="30" as="geometry" />
        </mxCell>
        <mxCell id="ZoXwGWdas1FD-zIulrFw-48" value="" style="endArrow=none;html=1;rounded=0;exitX=0;exitY=0.5;exitDx=0;exitDy=0;entryX=1;entryY=0.5;entryDx=0;entryDy=0;" edge="1" parent="1" source="ZoXwGWdas1FD-zIulrFw-47">
          <mxGeometry width="50" height="50" relative="1" as="geometry">
            <mxPoint x="659" y="448" as="sourcePoint" />
            <mxPoint x="558" y="325" as="targetPoint" />
          </mxGeometry>
        </mxCell>
        <mxCell id="ZoXwGWdas1FD-zIulrFw-51" value="论文" style="rounded=0;whiteSpace=wrap;html=1;" vertex="1" parent="1">
          <mxGeometry x="489" y="503" width="70" height="30" as="geometry" />
        </mxCell>
        <mxCell id="ZoXwGWdas1FD-zIulrFw-52" value="论文 id" style="ellipse;whiteSpace=wrap;html=1;" vertex="1" parent="1">
          <mxGeometry x="404" y="561" width="80" height="30" as="geometry" />
        </mxCell>
        <mxCell id="ZoXwGWdas1FD-zIulrFw-53" value="" style="endArrow=none;html=1;rounded=0;entryX=0.5;entryY=0;entryDx=0;entryDy=0;" edge="1" parent="1" target="ZoXwGWdas1FD-zIulrFw-52">
          <mxGeometry width="50" height="50" relative="1" as="geometry">
            <mxPoint x="524" y="533" as="sourcePoint" />
            <mxPoint x="679" y="453" as="targetPoint" />
          </mxGeometry>
        </mxCell>
        <mxCell id="ZoXwGWdas1FD-zIulrFw-54" value="提交时间" style="ellipse;whiteSpace=wrap;html=1;" vertex="1" parent="1">
          <mxGeometry x="484" y="591" width="80" height="30" as="geometry" />
        </mxCell>
        <mxCell id="ZoXwGWdas1FD-zIulrFw-55" value="" style="endArrow=none;html=1;rounded=0;entryX=0.5;entryY=0;entryDx=0;entryDy=0;" edge="1" parent="1" source="ZoXwGWdas1FD-zIulrFw-51" target="ZoXwGWdas1FD-zIulrFw-54">
          <mxGeometry width="50" height="50" relative="1" as="geometry">
            <mxPoint x="519" y="533" as="sourcePoint" />
            <mxPoint x="479" y="643" as="targetPoint" />
          </mxGeometry>
        </mxCell>
        <mxCell id="ZoXwGWdas1FD-zIulrFw-56" value="论文内容" style="ellipse;whiteSpace=wrap;html=1;" vertex="1" parent="1">
          <mxGeometry x="564" y="561" width="80" height="30" as="geometry" />
        </mxCell>
        <mxCell id="ZoXwGWdas1FD-zIulrFw-58" value="" style="endArrow=none;html=1;rounded=0;entryX=0.5;entryY=0;entryDx=0;entryDy=0;exitX=0.5;exitY=1;exitDx=0;exitDy=0;" edge="1" parent="1" source="ZoXwGWdas1FD-zIulrFw-51" target="ZoXwGWdas1FD-zIulrFw-56">
          <mxGeometry width="50" height="50" relative="1" as="geometry">
            <mxPoint x="599" y="713" as="sourcePoint" />
            <mxPoint x="479" y="663" as="targetPoint" />
          </mxGeometry>
        </mxCell>
        <mxCell id="ZoXwGWdas1FD-zIulrFw-61" value="" style="endArrow=none;html=1;rounded=0;entryX=0.5;entryY=1;entryDx=0;entryDy=0;exitX=0.5;exitY=0;exitDx=0;exitDy=0;" edge="1" parent="1" source="ZoXwGWdas1FD-zIulrFw-17" target="ZoXwGWdas1FD-zIulrFw-27">
          <mxGeometry width="50" height="50" relative="1" as="geometry">
            <mxPoint x="350" y="496" as="sourcePoint" />
            <mxPoint x="400" y="446" as="targetPoint" />
          </mxGeometry>
        </mxCell>
        <mxCell id="ZoXwGWdas1FD-zIulrFw-89" value="N" style="edgeLabel;html=1;align=center;verticalAlign=middle;resizable=0;points=[];" vertex="1" connectable="0" parent="ZoXwGWdas1FD-zIulrFw-61">
          <mxGeometry x="-0.0444" y="-1" relative="1" as="geometry">
            <mxPoint as="offset" />
          </mxGeometry>
        </mxCell>
        <mxCell id="ZoXwGWdas1FD-zIulrFw-62" value="" style="endArrow=none;html=1;rounded=0;entryX=0.5;entryY=1;entryDx=0;entryDy=0;exitX=0.5;exitY=0;exitDx=0;exitDy=0;" edge="1" parent="1" source="ZoXwGWdas1FD-zIulrFw-51" target="ZoXwGWdas1FD-zIulrFw-17">
          <mxGeometry width="50" height="50" relative="1" as="geometry">
            <mxPoint x="535" y="433" as="sourcePoint" />
            <mxPoint x="534" y="350" as="targetPoint" />
            <Array as="points" />
          </mxGeometry>
        </mxCell>
        <mxCell id="ZoXwGWdas1FD-zIulrFw-90" value="M" style="edgeLabel;html=1;align=center;verticalAlign=middle;resizable=0;points=[];" vertex="1" connectable="0" parent="ZoXwGWdas1FD-zIulrFw-62">
          <mxGeometry x="-0.1861" relative="1" as="geometry">
            <mxPoint y="-3" as="offset" />
          </mxGeometry>
        </mxCell>
        <mxCell id="ZoXwGWdas1FD-zIulrFw-66" value="属于" style="rhombus;whiteSpace=wrap;html=1;" vertex="1" parent="1">
          <mxGeometry x="340" y="176" width="90" height="30" as="geometry" />
        </mxCell>
        <mxCell id="ZoXwGWdas1FD-zIulrFw-67" value="" style="endArrow=none;html=1;rounded=0;exitX=1;exitY=0.5;exitDx=0;exitDy=0;entryX=0.5;entryY=0;entryDx=0;entryDy=0;" edge="1" parent="1" source="ZoXwGWdas1FD-zIulrFw-66" target="ZoXwGWdas1FD-zIulrFw-27">
          <mxGeometry width="50" height="50" relative="1" as="geometry">
            <mxPoint x="421" y="423" as="sourcePoint" />
            <mxPoint x="523" y="310" as="targetPoint" />
          </mxGeometry>
        </mxCell>
        <mxCell id="ZoXwGWdas1FD-zIulrFw-68" value="N" style="edgeLabel;html=1;align=center;verticalAlign=middle;resizable=0;points=[];" vertex="1" connectable="0" parent="ZoXwGWdas1FD-zIulrFw-67">
          <mxGeometry x="0.0113" y="-3" relative="1" as="geometry">
            <mxPoint as="offset" />
          </mxGeometry>
        </mxCell>
        <mxCell id="ZoXwGWdas1FD-zIulrFw-69" value="" style="endArrow=none;html=1;rounded=0;entryX=0;entryY=0.5;entryDx=0;entryDy=0;exitX=1;exitY=0.5;exitDx=0;exitDy=0;" edge="1" parent="1" source="ZoXwGWdas1FD-zIulrFw-15" target="ZoXwGWdas1FD-zIulrFw-66">
          <mxGeometry width="50" height="50" relative="1" as="geometry">
            <mxPoint x="325" y="675" as="sourcePoint" />
            <mxPoint x="429" y="577" as="targetPoint" />
          </mxGeometry>
        </mxCell>
        <mxCell id="ZoXwGWdas1FD-zIulrFw-70" value="1" style="edgeLabel;html=1;align=center;verticalAlign=middle;resizable=0;points=[];" vertex="1" connectable="0" parent="ZoXwGWdas1FD-zIulrFw-69">
          <mxGeometry x="0.0113" y="-3" relative="1" as="geometry">
            <mxPoint as="offset" />
          </mxGeometry>
        </mxCell>
        <mxCell id="ZoXwGWdas1FD-zIulrFw-72" value="管理" style="rhombus;whiteSpace=wrap;html=1;" vertex="1" parent="1">
          <mxGeometry x="340" y="310" width="90" height="30" as="geometry" />
        </mxCell>
        <mxCell id="ZoXwGWdas1FD-zIulrFw-73" value="" style="endArrow=none;html=1;rounded=0;entryX=0;entryY=0.5;entryDx=0;entryDy=0;exitX=1;exitY=0.5;exitDx=0;exitDy=0;" edge="1" parent="1" source="ZoXwGWdas1FD-zIulrFw-72" target="ZoXwGWdas1FD-zIulrFw-27">
          <mxGeometry width="50" height="50" relative="1" as="geometry">
            <mxPoint x="430" y="448" as="sourcePoint" />
            <mxPoint x="534" y="350" as="targetPoint" />
          </mxGeometry>
        </mxCell>
        <mxCell id="ZoXwGWdas1FD-zIulrFw-74" value="M" style="edgeLabel;html=1;align=center;verticalAlign=middle;resizable=0;points=[];" vertex="1" connectable="0" parent="ZoXwGWdas1FD-zIulrFw-73">
          <mxGeometry x="0.0113" y="-3" relative="1" as="geometry">
            <mxPoint as="offset" />
          </mxGeometry>
        </mxCell>
        <mxCell id="ZoXwGWdas1FD-zIulrFw-76" value="" style="endArrow=none;html=1;rounded=0;exitX=1;exitY=0.5;exitDx=0;exitDy=0;entryX=0;entryY=0.5;entryDx=0;entryDy=0;" edge="1" parent="1" source="ZoXwGWdas1FD-zIulrFw-22" target="ZoXwGWdas1FD-zIulrFw-72">
          <mxGeometry width="50" height="50" relative="1" as="geometry">
            <mxPoint x="440" y="335" as="sourcePoint" />
            <mxPoint x="320" y="366" as="targetPoint" />
            <Array as="points" />
          </mxGeometry>
        </mxCell>
        <mxCell id="ZoXwGWdas1FD-zIulrFw-77" value="N" style="edgeLabel;html=1;align=center;verticalAlign=middle;resizable=0;points=[];" vertex="1" connectable="0" parent="ZoXwGWdas1FD-zIulrFw-76">
          <mxGeometry x="0.0113" y="-3" relative="1" as="geometry">
            <mxPoint as="offset" />
          </mxGeometry>
        </mxCell>
        <mxCell id="ZoXwGWdas1FD-zIulrFw-79" value="属于" style="rhombus;whiteSpace=wrap;html=1;" vertex="1" parent="1">
          <mxGeometry x="200" y="502" width="90" height="30" as="geometry" />
        </mxCell>
        <mxCell id="ZoXwGWdas1FD-zIulrFw-80" value="" style="endArrow=none;html=1;rounded=0;entryX=0;entryY=0.5;entryDx=0;entryDy=0;exitX=1;exitY=0.5;exitDx=0;exitDy=0;" edge="1" parent="1" source="ZoXwGWdas1FD-zIulrFw-79" target="ZoXwGWdas1FD-zIulrFw-51">
          <mxGeometry width="50" height="50" relative="1" as="geometry">
            <mxPoint x="400" y="498" as="sourcePoint" />
            <mxPoint x="534" y="317" as="targetPoint" />
          </mxGeometry>
        </mxCell>
        <mxCell id="ZoXwGWdas1FD-zIulrFw-95" value="N" style="edgeLabel;html=1;align=center;verticalAlign=middle;resizable=0;points=[];" vertex="1" connectable="0" parent="ZoXwGWdas1FD-zIulrFw-80">
          <mxGeometry x="0.1537" relative="1" as="geometry">
            <mxPoint x="-12" as="offset" />
          </mxGeometry>
        </mxCell>
        <mxCell id="ZoXwGWdas1FD-zIulrFw-83" value="" style="endArrow=none;html=1;rounded=0;entryX=0.5;entryY=1;entryDx=0;entryDy=0;exitX=0.5;exitY=0;exitDx=0;exitDy=0;" edge="1" parent="1" source="ZoXwGWdas1FD-zIulrFw-79" target="ZoXwGWdas1FD-zIulrFw-22">
          <mxGeometry width="50" height="50" relative="1" as="geometry">
            <mxPoint x="410" y="541" as="sourcePoint" />
            <mxPoint x="544" y="360" as="targetPoint" />
          </mxGeometry>
        </mxCell>
        <mxCell id="ZoXwGWdas1FD-zIulrFw-92" value="1" style="edgeLabel;html=1;align=center;verticalAlign=middle;resizable=0;points=[];" vertex="1" connectable="0" parent="ZoXwGWdas1FD-zIulrFw-83">
          <mxGeometry x="-0.0385" y="1" relative="1" as="geometry">
            <mxPoint as="offset" />
          </mxGeometry>
        </mxCell>
        <mxCell id="ZoXwGWdas1FD-zIulrFw-96" value="角色" style="rounded=0;whiteSpace=wrap;html=1;" vertex="1" parent="1">
          <mxGeometry x="248" y="244" width="70" height="30" as="geometry" />
        </mxCell>
        <mxCell id="ZoXwGWdas1FD-zIulrFw-97" value="拥有" style="rhombus;whiteSpace=wrap;html=1;" vertex="1" parent="1">
          <mxGeometry x="344.5" y="244" width="90" height="30" as="geometry" />
        </mxCell>
        <mxCell id="ZoXwGWdas1FD-zIulrFw-98" value="" style="endArrow=none;html=1;rounded=0;entryX=1;entryY=0.5;entryDx=0;entryDy=0;exitX=0;exitY=0.5;exitDx=0;exitDy=0;" edge="1" parent="1" source="ZoXwGWdas1FD-zIulrFw-97" target="ZoXwGWdas1FD-zIulrFw-96">
          <mxGeometry width="50" height="50" relative="1" as="geometry">
            <mxPoint x="330" y="461" as="sourcePoint" />
            <mxPoint x="249" y="348" as="targetPoint" />
          </mxGeometry>
        </mxCell>
        <mxCell id="ZoXwGWdas1FD-zIulrFw-99" value="1" style="edgeLabel;html=1;align=center;verticalAlign=middle;resizable=0;points=[];" vertex="1" connectable="0" parent="ZoXwGWdas1FD-zIulrFw-98">
          <mxGeometry x="-0.0385" y="1" relative="1" as="geometry">
            <mxPoint as="offset" />
          </mxGeometry>
        </mxCell>
        <mxCell id="ZoXwGWdas1FD-zIulrFw-102" value="" style="endArrow=none;html=1;rounded=0;exitX=1;exitY=0.5;exitDx=0;exitDy=0;entryX=0.5;entryY=0;entryDx=0;entryDy=0;" edge="1" parent="1" source="ZoXwGWdas1FD-zIulrFw-97" target="ZoXwGWdas1FD-zIulrFw-27">
          <mxGeometry width="50" height="50" relative="1" as="geometry">
            <mxPoint x="290" y="335" as="sourcePoint" />
            <mxPoint x="350" y="335" as="targetPoint" />
            <Array as="points" />
          </mxGeometry>
        </mxCell>
        <mxCell id="ZoXwGWdas1FD-zIulrFw-103" value="N" style="edgeLabel;html=1;align=center;verticalAlign=middle;resizable=0;points=[];" vertex="1" connectable="0" parent="ZoXwGWdas1FD-zIulrFw-102">
          <mxGeometry x="0.0113" y="-3" relative="1" as="geometry">
            <mxPoint as="offset" />
          </mxGeometry>
        </mxCell>
        <mxCell id="ZoXwGWdas1FD-zIulrFw-104" value="角色 id" style="ellipse;whiteSpace=wrap;html=1;" vertex="1" parent="1">
          <mxGeometry x="160" y="245" width="65" height="30" as="geometry" />
        </mxCell>
        <mxCell id="ZoXwGWdas1FD-zIulrFw-106" value="" style="endArrow=none;html=1;rounded=0;entryX=1;entryY=0.5;entryDx=0;entryDy=0;exitX=0.001;exitY=0.533;exitDx=0;exitDy=0;exitPerimeter=0;" edge="1" parent="1" source="ZoXwGWdas1FD-zIulrFw-96" target="ZoXwGWdas1FD-zIulrFw-104">
          <mxGeometry width="50" height="50" relative="1" as="geometry">
            <mxPoint x="220" y="335" as="sourcePoint" />
            <mxPoint x="170" y="251" as="targetPoint" />
          </mxGeometry>
        </mxCell>
      </root>
    </mxGraphModel>
  </diagram>
</mxfile>
